<?xml version="1.0" standalone="no"?>
<svg viewBox="0 0 1024 768" version="1.1" xmlns="http://www.w3.org/2000/svg" xmlns:xlink="http://www.w3.org/1999/xlink" stroke-linecap="round" stroke-linejoin="round" fill-rule="evenodd" xml:space="preserve" style="background-color:rgb(0,0,0);" >
<defs >
<clipPath id="clipId0" >
<path d="M0,768 1024,768 1024,0 0,0 z" />
</clipPath>
</defs>
<rect width="100%" height="100%" fill="rgb(0,0,0)" />
<g clip-path="url(#clipId0)" fill="none" stroke="rgb(255,255,255)" stroke-width="0.1" >
<polyline points="1013.96,360.689 1013.52,359.042 1012.31,357.836 1010.67,357.395 1005.06,357.395 1005.06,357.395 1003.42,356.953 1002.21,355.747 1001.77,354.1 1001.77,335.649 1001.77,335.649 1001.33,334.002 1000.12,332.796 998.475,332.354 860.588,332.354 860.588,333.712 856.908,337.393 856.908,337.393 856.317,337.734 855.635,337.734 855.044,337.393 851.363,333.712 851.363,332.354 822.698,332.354 822.698,333.712 819.018,337.393 819.018,337.393 818.427,337.734 817.745,337.734 817.154,337.393 813.473,333.712 813.473,332.354 794.693,332.354 794.693,333.712 791.012,337.393 791.012,337.393 790.421,337.734 789.739,337.734 789.148,337.393 785.467,333.712 785.467,332.354 756.803,332.354 756.803,333.712 753.122,337.393 753.122,337.393 752.531,337.734 751.849,337.734 751.258,337.393 747.577,333.712 747.577,332.354 662.901,332.354 662.901,333.712 659.22,337.393 659.22,337.393 658.63,337.734 657.947,337.734 657.357,337.393 653.676,333.712 653.676,332.354 625.011,332.354 625.011,333.712 621.33,337.393 621.33,337.393 620.74,337.734 620.057,337.734 619.467,337.393 615.786,333.712 615.786,332.354 597.006,332.354 597.006,333.712 593.325,337.393 593.325,337.393 592.734,337.734 592.052,337.734 591.461,337.393 587.78,333.712 587.78,332.354 559.115,332.354 559.115,333.712 555.435,337.393 555.435,337.393 554.844,337.734 554.162,337.734 553.571,337.393 549.89,333.712 549.89,332.354 531.11,332.354 531.11,333.712 527.429,337.393 527.429,337.393 526.838,337.734 526.156,337.734 525.565,337.393 521.884,333.712 521.884,332.354 493.22,332.354 493.22,333.712 489.539,337.393 489.539,337.393 488.948,337.734 488.266,337.734 487.675,337.393 483.994,333.712 483.994,332.354 399.318,332.354 399.318,333.712 395.637,337.393 395.637,337.393 395.047,337.734 394.364,337.734 393.774,337.393 390.093,333.712 390.093,332.354 361.428,332.354 361.428,333.712 357.747,337.393 357.747,337.393 357.157,337.734 356.474,337.734 355.884,337.393 352.203,333.712 352.203,332.354 333.423,332.354 333.423,333.712 329.742,337.393 329.742,337.393 328.81,337.779 327.878,337.393 324.197,333.712 324.197,332.354 295.533,332.354 295.533,333.712 291.852,337.393 291.852,337.393 291.261,337.734 290.579,337.734 289.988,337.393 286.307,333.712 286.307,332.354 201.631,332.354 201.631,333.712 197.95,337.393 197.95,337.393 197.018,337.779 196.086,337.393 192.406,333.712 192.406,332.354 163.741,332.354 163.741,333.712 160.06,337.393 160.06,337.393 159.469,337.734 158.787,337.734 158.196,337.393 154.516,333.712 154.516,332.354 135.735,332.354 135.735,333.712 132.055,337.393 132.055,337.393 131.464,337.734 130.782,337.734 130.191,337.393 126.51,333.712 126.51,332.354 97.8453,332.354 97.8453,333.712 94.1645,337.393 94.1645,337.393 93.5737,337.734 92.8915,337.734 92.3007,337.393 88.6199,333.712 88.6199,332.354 69.8396,332.354 69.8396,333.712 66.1588,337.393 66.1588,337.393 65.2269,337.779 64.295,337.393 60.6142,333.712 60.6142,332.354 31.9495,332.354 31.9495,333.712 28.2688,337.393 28.2688,337.393 27.6779,337.734 26.9957,337.734 26.4049,337.393 22.7241,333.712 22.7241,332.354 10.0392,332.354 10.0392,361.019 22.7241,361.019 22.7241,359.661 26.4049,355.98 26.4049,355.98 27.3368,355.594 28.2688,355.98 31.9495,359.661 31.9495,361.019 60.6142,361.019 60.6142,359.661 64.295,355.98 64.295,355.98 64.8858,355.639 65.568,355.639 66.1588,355.98 69.8396,359.661 69.8396,361.019 88.6199,361.019 88.6199,359.661 92.3007,355.98 92.3007,355.98 93.2326,355.594 94.1645,355.98 97.8453,359.661 97.8453,361.019 126.51,361.019 126.51,359.661 130.191,355.98 130.191,355.98 131.123,355.594 132.055,355.98 135.735,359.661 135.735,361.019 154.516,361.019 154.516,359.661 158.196,355.98 158.196,355.98 159.128,355.594 160.06,355.98 163.741,359.661 163.741,361.019 192.406,361.019 192.406,359.661 196.086,355.98 196.086,355.98 196.677,355.639 197.359,355.639 197.95,355.98 201.631,359.661 201.631,361.019 286.307,361.019 286.307,359.661 289.988,355.98 289.988,355.98 290.579,355.639 291.261,355.639 291.852,355.98 295.533,359.661 295.533,361.019 324.197,361.019 324.197,359.661 327.878,355.98 327.878,355.98 328.469,355.639 329.151,355.639 329.742,355.98 333.423,359.661 333.423,361.019 352.203,361.019 352.203,359.661 355.884,355.98 355.884,355.98 356.816,355.594 357.747,355.98 361.428,359.661 361.428,361.019 390.093,361.019 390.093,359.661 393.774,355.98 393.774,355.98 394.364,355.639 395.047,355.639 395.637,355.98 399.318,359.661 399.318,361.019 483.994,361.019 483.994,359.661 487.675,355.98 487.675,355.98 488.607,355.594 489.539,355.98 493.22,359.661 493.22,361.019 521.884,361.019 521.884,359.661 525.565,355.98 525.565,355.98 526.156,355.639 526.838,355.639 527.429,355.98 531.11,359.661 531.11,361.019 549.89,361.019 549.89,359.661 553.571,355.98 553.571,355.98 554.503,355.594 555.435,355.98 559.115,359.661 559.115,361.019 587.78,361.019 587.78,359.661 591.461,355.98 591.461,355.98 592.052,355.639 592.734,355.639 593.325,355.98 597.006,359.661 597.006,361.019 615.786,361.019 615.786,359.661 619.467,355.98 619.467,355.98 620.398,355.594 621.33,355.98 625.011,359.661 625.011,361.019 653.676,361.019 653.676,359.661 657.357,355.98 657.357,355.98 658.289,355.594 659.22,355.98 662.901,359.661 662.901,361.019 747.577,361.019 747.577,359.661 751.258,355.98 751.258,355.98 751.849,355.639 752.531,355.639 753.122,355.98 756.803,359.661 756.803,361.019 785.467,361.019 785.467,359.661 789.148,355.98 789.148,355.98 790.08,355.594 791.012,355.98 794.693,359.661 794.693,361.019 813.473,361.019 813.473,359.661 817.154,355.98 817.154,355.98 817.745,355.639 818.427,355.639 819.018,355.98 822.698,359.661 822.698,361.019 851.363,361.019 851.363,359.661 855.044,355.98 855.044,355.98 855.976,355.594 856.908,355.98 860.588,359.661 860.588,361.019 874.921,361.019 874.921,427.409 874.921,427.409 875.324,429.954 876.494,432.25 878.316,434.073 880.612,435.243 883.158,435.646 1005.72,435.646 1005.72,435.646 1008.27,435.243 1010.57,434.073 1012.39,432.25 1013.56,429.954 1013.96,427.409 1013.96,360.689 " />
<circle cx="883.158" cy="427.409" r="5.10692" />
<circle cx="962.892" cy="427.409" r="5.10692" />
<circle cx="962.892" cy="341.744" r="5.10692" />
</g>
</svg>
