0
SECTION
2
HEADER
9
$INSUNITS
70
4
9
$ACADVER
1
AC1014
9
$HANDSEED
5
FFFF
0
ENDSEC
0
SECTION
2
TABLES
0
TABLE
2
VPORT
5
8
100
AcDbSymbolTable
0
ENDTAB
0
TABLE
2
LTYPE
5
5
100
AcDbSymbolTable
0
LTYPE
5
14
100
AcDbSymbolTableRecord
100
AcDbLinetypeTableRecord
2
BYBLOCK
70
0
0
LTYPE
5
15
100
AcDbSymbolTableRecord
100
AcDbLinetypeTableRecord
2
BYLAYER
70
0
0
LTYPE
5
16
100
AcDbSymbolTableRecord
100
AcDbLinetypeTableRecord
2
DASHED
70
0
3
Dashed __ __ __ __ __ __ __ __ __ __ __ __ __ _
72
65
73
2
40
0.75
49
0.5
74
0
49
-0.25
74
0
0
ENDTAB
0
TABLE
2
LAYER
5
2
100
AcDbSymbolTable
70
2
0
LAYER
5
50
100
AcDbSymbolTableRecord
100
AcDbLayerTableRecord
2
0
70
0
62
7
6
CONTINUOUS
0
ENDTAB
0
TABLE
2
STYLE
5
3
100
AcDbSymbolTable
70
1
0
STYLE
5
11
100
AcDbSymbolTableRecord
100
AcDbTextStyleTableRecord
2
STANDARD
70
0
0
ENDTAB
0
TABLE
2
VIEW
5
6
100
AcDbSymbolTable
70
0
0
ENDTAB
0
TABLE
2
UCS
5
7
100
AcDbSymbolTable
70
0
0
ENDTAB
0
TABLE
2
APPID
5
9
100
AcDbSymbolTable
70
2
0
APPID
5
12
100
AcDbSymbolTableRecord
100
AcDbRegAppTableRecord
2
ACAD
70
0
0
ENDTAB
0
TABLE
2
DIMSTYLE
5
A
100
AcDbSymbolTable
70
1
0
ENDTAB
0
TABLE
2
BLOCK_RECORD
5
1
100
AcDbSymbolTable
70
1
0
BLOCK_RECORD
5
1F
100
AcDbSymbolTableRecord
100
AcDbBlockTableRecord
2
*MODEL_SPACE
0
BLOCK_RECORD
5
1B
100
AcDbSymbolTableRecord
100
AcDbBlockTableRecord
2
*PAPER_SPACE
0
ENDTAB
0
ENDSEC
0
SECTION
2
BLOCKS
0
BLOCK
5
20
100
AcDbEntity
100
AcDbBlockBegin
2
*MODEL_SPACE
0
ENDBLK
5
21
100
AcDbEntity
100
AcDbBlockEnd
0
BLOCK
5
1C
100
AcDbEntity
100
AcDbBlockBegin
2
*PAPER_SPACE
0
ENDBLK
5
1D
100
AcDbEntity
100
AcDbBlockEnd
0
ENDSEC
0
SECTION
2
ENTITIES
0
LWPOLYLINE
5
100
100
AcDbEntity
8
0
100
AcDbPolyline
90
253
70
1
43
0.0
10
14.700000000000003
20
-50.749999999999993
42
0.41421356237310025
10
13.699999999999992
20
-49.75
10
11.999999999999993
20
-49.75
42
-0.4142135623730937
10
10.999999999999996
20
-48.75
10
10.999999999999989
20
-43.149999999999991
42
0.41421356237309503
10
10
20
-42.149999999999999
10
-31.850000000000051
20
-42.149999999999999
10
-31.850000000000044
20
-42.56213203435599
10
-32.967157287525438
20
-43.679289321881363
42
-0.41421356237313184
10
-33.53284271247469
20
-43.679289321881342
10
-34.650000000000048
20
-42.562132034355997
10
-34.650000000000048
20
-42.149999999999999
10
-43.3500000000003
20
-42.149999999999991
10
-43.3500000000003
20
-42.562132034356239
10
-44.467157287525616
20
-43.679289321881669
42
-0.414213562373141
10
-45.032842712474867
20
-43.679289321881654
10
-46.150000000000304
20
-42.562132034356353
10
-46.150000000000304
20
-42.149999999999991
10
-51.850000000000051
20
-42.149999999999999
10
-51.850000000000051
20
-42.56213203435599
10
-52.967157287525438
20
-43.67928932188137
42
-0.41421356237311341
10
-53.53284271247469
20
-43.679289321881342
10
-54.650000000000041
20
-42.562132034356004
10
-54.650000000000041
20
-42.149999999999999
10
-63.3500000000003
20
-42.149999999999991
10
-63.3500000000003
20
-42.562132034356253
10
-64.467157287525609
20
-43.679289321881669
42
-0.41421356237315027
10
-65.032842712474874
20
-43.679289321881654
10
-66.15000000000029
20
-42.56213203435636
10
-66.150000000000304
20
-42.149999999999991
10
-91.850000000000037
20
-42.149999999999999
10
-91.850000000000037
20
-42.562132034355969
10
-92.967157287525424
20
-43.67928932188137
42
-0.41421356237314561
10
-93.532842712474718
20
-43.679289321881342
10
-94.650000000000048
20
-42.562132034355997
10
-94.650000000000048
20
-42.149999999999991
10
-103.35000000000029
20
-42.149999999999977
10
-103.35000000000029
20
-42.562132034356253
10
-104.46715728752562
20
-43.679289321881683
42
-0.41421356237312723
10
-105.03284271247487
20
-43.679289321881654
10
-106.1500000000003
20
-42.56213203435636
10
-106.1500000000003
20
-42.149999999999991
10
-111.85000000000004
20
-42.149999999999999
10
-111.85000000000004
20
-42.562132034356004
10
-112.9671572875254
20
-43.679289321881399
42
-0.41421356237313645
10
-113.53284271247472
20
-43.679289321881349
10
-114.65000000000005
20
-42.562132034356004
10
-114.65000000000005
20
-42.149999999999999
10
-123.35000000000029
20
-42.149999999999991
10
-123.35000000000029
20
-42.562132034356253
10
-124.46715728752562
20
-43.679289321881683
42
-0.41421356237312723
10
-125.03284271247487
20
-43.679289321881654
10
-126.1500000000003
20
-42.56213203435636
10
-126.1500000000003
20
-42.149999999999991
10
-131.85000000000005
20
-42.149999999999999
10
-131.85000000000005
20
-42.562132034355955
10
-132.96715728752542
20
-43.679289321881384
42
-0.41421356237315027
10
-133.53284271247472
20
-43.679289321881349
10
-134.65000000000006
20
-42.562132034356026
10
-134.65000000000006
20
-42.150000000000006
10
-143.35000000000031
20
-42.149999999999999
10
-143.35000000000031
20
-42.562132034356253
10
-144.46715728752562
20
-43.679289321881704
42
-0.41421356237313645
10
-145.03284271247489
20
-43.679289321881669
10
-146.15000000000032
20
-42.562132034356388
10
-146.15000000000032
20
-42.149999999999991
10
-171.85000000000002
20
-42.149999999999999
10
-171.85000000000002
20
-42.56213203435599
10
-172.96715728752545
20
-43.67928932188137
42
-0.41421356237311807
10
-173.53284271247472
20
-43.679289321881349
10
-174.65000000000003
20
-42.562132034356026
10
-174.65000000000006
20
-42.149999999999991
10
-183.35000000000031
20
-42.149999999999977
10
-183.35000000000031
20
-42.562132034356274
10
-184.46715728752565
20
-43.679289321881676
42
-0.414213562373141
10
-185.03284271247483
20
-43.67928932188164
10
-186.15000000000032
20
-42.562132034356324
10
-186.15000000000032
20
-42.149999999999999
10
-191.85000000000002
20
-42.150000000000006
10
-191.85000000000002
20
-42.56213203435599
10
-192.96715728752545
20
-43.679289321881342
42
-0.41421356237304441
10
-193.53284271247469
20
-43.679289321881342
10
-194.65000000000003
20
-42.56213203435599
10
-194.65000000000006
20
-42.149999999999999
10
-203.35000000000031
20
-42.149999999999991
10
-203.35000000000031
20
-42.562132034356168
10
-204.46715728752562
20
-43.679289321881676
42
-0.4142135623731778
10
-205.03284271247486
20
-43.67928932188164
10
-206.15000000000032
20
-42.562132034356353
10
-206.15000000000032
20
-42.149999999999991
10
-231.85000000000002
20
-42.149999999999999
10
-231.85000000000002
20
-42.562132034355919
10
-232.96715728752548
20
-43.679289321881363
42
-0.41421356237309503
10
-233.53284271247469
20
-43.679289321881328
10
-234.65000000000003
20
-42.562132034356004
10
-234.65000000000006
20
-42.149999999999999
10
-243.35000000000031
20
-42.149999999999991
10
-243.35000000000031
20
-42.56213203435631
10
-244.46715728752565
20
-43.679289321881711
42
-0.41421356237312262
10
-245.03284271247486
20
-43.67928932188164
10
-246.15000000000032
20
-42.562132034356353
10
-246.15000000000032
20
-42.149999999999999
10
-251.85000000000002
20
-42.150000000000006
10
-251.85000000000002
20
-42.562132034355955
10
-252.96715728752545
20
-43.67928932188137
42
-0.41421356237311807
10
-253.53284271247472
20
-43.679289321881349
10
-254.65000000000003
20
-42.562132034356026
10
-254.65000000000006
20
-42.149999999999991
10
-263.35000000000031
20
-42.149999999999977
10
-263.35000000000031
20
-42.56213203435631
10
-264.46715728752565
20
-43.679289321881697
42
-0.41421356237315943
10
-265.03284271247486
20
-43.679289321881626
10
-266.15000000000032
20
-42.562132034356353
10
-266.15000000000032
20
-42.149999999999991
10
-271.85000000000002
20
-42.149999999999999
10
-271.85000000000002
20
-42.56213203435599
10
-272.96715728752548
20
-43.679289321881363
42
-0.41421356237308127
10
-273.53284271247469
20
-43.679289321881313
10
-274.65000000000003
20
-42.56213203435599
10
-274.65000000000009
20
-42.149999999999991
10
-283.35000000000031
20
-42.149999999999977
10
-283.35000000000031
20
-42.562132034356239
10
-284.46715728752565
20
-43.679289321881704
42
-0.4142135623731778
10
-285.03284271247486
20
-43.679289321881633
10
-286.15000000000032
20
-42.562132034356353
10
-286.15000000000032
20
-42.149999999999977
10
-290.00000000000006
20
-42.149999999999991
10
-290.00000000000006
20
-50.850000000000001
10
-286.1500000000002
20
-50.84999999999981
10
-286.1500000000002
20
-50.437867965643825
10
-285.03284271247486
20
-49.320710678118488
42
-0.41421356237300766
10
-284.46715728752559
20
-49.320710678118473
10
-283.35000000000019
20
-50.437867965643946
10
-283.35000000000025
20
-50.849999999999866
10
-274.64999999999998
20
-50.850000000000001
10
-274.64999999999998
20
-50.437867965644109
10
-273.53284271247469
20
-49.320710678118658
42
-0.4142135623731088
10
-272.96715728752537
20
-49.320710678118651
10
-271.84999999999997
20
-50.437867965644045
10
-271.84999999999997
20
-50.850000000000001
10
-266.1500000000002
20
-50.849999999999795
10
-266.1500000000002
20
-50.437867965643861
10
-265.03284271247486
20
-49.32071067811853
42
-0.41421356237304441
10
-264.46715728752559
20
-49.320710678118509
10
-263.35000000000019
20
-50.437867965643967
10
-263.35000000000025
20
-50.849999999999874
10
-254.65000000000001
20
-50.850000000000009
10
-254.65000000000001
20
-50.437867965644109
10
-253.53284271247463
20
-49.320710678118694
42
-0.41421356237309503
10
-252.96715728752545
20
-49.320710678118658
10
-251.84999999999999
20
-50.437867965644045
10
-251.84999999999999
20
-50.850000000000009
10
-246.15000000000023
20
-50.849999999999802
10
-246.1500000000002
20
-50.437867965643932
10
-245.03284271247483
20
-49.32071067811853
42
-0.41421356237304441
10
-244.46715728752559
20
-49.320710678118509
10
-243.35000000000019
20
-50.437867965644003
10
-243.35000000000022
20
-50.849999999999881
10
-234.65000000000001
20
-50.850000000000016
10
-234.65000000000001
20
-50.437867965644109
10
-233.53284271247472
20
-49.320710678118743
42
-0.41421356237315482
10
-232.96715728752542
20
-49.320710678118672
10
-231.84999999999999
20
-50.43786796564406
10
-231.84999999999999
20
-50.850000000000016
10
-206.15000000000023
20
-50.84999999999981
10
-206.1500000000002
20
-50.437867965643861
10
-205.03284271247486
20
-49.320710678118537
42
-0.41421356237309964
10
-204.46715728752559
20
-49.320710678118466
10
-203.35000000000019
20
-50.437867965643939
10
-203.35000000000022
20
-50.849999999999866
10
-194.65000000000001
20
-50.850000000000001
10
-194.65000000000001
20
-50.437867965644109
10
-193.53284271247463
20
-49.320710678118658
42
-0.414213562373141
10
-192.96715728752542
20
-49.320710678118658
10
-191.84999999999999
20
-50.437867965644045
10
-191.84999999999999
20
-50.850000000000009
10
-186.15000000000023
20
-50.849999999999802
10
-186.1500000000002
20
-50.437867965643861
10
-185.0328427124748
20
-49.320710678118502
42
-0.41421356237303986
10
-184.46715728752559
20
-49.320710678118502
10
-183.35000000000019
20
-50.43786796564396
10
-183.35000000000022
20
-50.849999999999881
10
-174.65000000000001
20
-50.850000000000016
10
-174.65000000000001
20
-50.437867965644109
10
-173.53284271247469
20
-49.320710678118701
42
-0.41421356237311341
10
-172.96715728752542
20
-49.320710678118672
10
-171.84999999999999
20
-50.437867965644074
10
-171.84999999999999
20
-50.850000000000016
10
-146.15000000000026
20
-50.84999999999981
10
-146.15000000000023
20
-50.437867965643818
10
-145.03284271247486
20
-49.320710678118509
42
-0.41421356237305829
10
-144.46715728752554
20
-49.320710678118488
10
-143.35000000000022
20
-50.43786796564396
10
-143.35000000000025
20
-50.849999999999866
10
-134.65000000000001
20
-50.850000000000001
10
-134.65000000000001
20
-50.437867965644017
10
-133.53284271247466
20
-49.320710678118687
42
-0.41421356237310425
10
-132.96715728752542
20
-49.320710678118672
10
-131.84999999999999
20
-50.43786796564406
10
-131.84999999999999
20
-50.850000000000009
10
-126.15000000000025
20
-50.849999999999802
10
-126.15000000000023
20
-50.437867965643846
10
-125.03284271247483
20
-49.320710678118509
42
-0.4142135623730766
10
-124.46715728752557
20
-49.320710678118488
10
-123.35000000000022
20
-50.437867965643967
10
-123.35000000000024
20
-50.849999999999881
10
-114.65000000000001
20
-50.850000000000016
10
-114.65000000000001
20
-50.437867965644088
10
-113.53284271247466
20
-49.320710678118687
42
-0.41421356237310425
10
-112.96715728752542
20
-49.320710678118672
10
-111.84999999999999
20
-50.437867965644053
10
-111.84999999999999
20
-50.850000000000009
10
-106.15000000000025
20
-50.849999999999802
10
-106.15000000000023
20
-50.437867965643818
10
-105.03284271247483
20
-49.320710678118516
42
-0.4142135623730766
10
-104.46715728752557
20
-49.320710678118502
10
-103.35000000000022
20
-50.437867965643967
10
-103.35000000000024
20
-50.849999999999874
10
-94.650000000000006
20
-50.850000000000009
10
-94.650000000000006
20
-50.437867965644074
10
-93.532842712474675
20
-49.320710678118672
42
-0.41421356237306745
10
-92.967157287525424
20
-49.320710678118651
10
-91.849999999999994
20
-50.437867965644031
10
-91.849999999999994
20
-50.850000000000016
10
-66.150000000000247
20
-50.84999999999981
10
-66.150000000000233
20
-50.437867965643839
10
-65.032842712474817
20
-49.320710678118488
42
-0.41421356237311341
10
-64.467157287525538
20
-49.320710678118516
10
-63.350000000000236
20
-50.437867965643932
10
-63.35000000000025
20
-50.849999999999874
10
-54.649999999999991
20
-50.850000000000009
10
-54.649999999999991
20
-50.437867965644053
10
-53.532842712474661
20
-49.320710678118679
42
-0.41421356237307672
10
-52.967157287525396
20
-49.320710678118658
10
-51.849999999999994
20
-50.437867965644017
10
-51.849999999999994
20
-50.850000000000009
10
-46.15000000000024
20
-50.84999999999981
10
-46.150000000000233
20
-50.437867965643839
10
-45.032842712474832
20
-49.320710678118502
42
-0.41421356237311341
10
-44.467157287525538
20
-49.320710678118516
10
-43.350000000000236
20
-50.43786796564391
10
-43.35000000000025
20
-50.849999999999874
10
-34.649999999999999
20
-50.850000000000009
10
-34.649999999999999
20
-50.43786796564406
10
-33.532842712474654
20
-49.320710678118679
42
-0.41421356237308588
10
-32.96715728752541
20
-49.320710678118672
10
-31.849999999999994
20
-50.437867965644038
10
-31.849999999999994
20
-50.850000000000009
10
-27.5
20
-50.850000000000009
10
-27.5
20
-71.000000000000014
42
0.41421356237309243
10
-25.000000000000014
20
-73.5
10
12.200000000000003
20
-73.5
42
0.41421356237309348
10
14.699999999999998
20
-71.000000000000014
0
CIRCLE
5
101
100
AcDbEntity
8
0
100
AcDbCircle
10
-25
20
-71
30
0
40
1.5500000000000025
210
0
220
0
230
1
0
CIRCLE
5
102
100
AcDbEntity
8
0
100
AcDbCircle
10
-0.80000000000000071
20
-71
30
0
40
1.5500000000000003
210
0
220
0
230
1
0
CIRCLE
5
103
100
AcDbEntity
8
0
100
AcDbCircle
10
-0.80000000000000071
20
-45
30
0
40
1.5500000000000003
210
0
220
0
230
1
0
ENDSEC
0
SECTION
2
OBJECTS
0
DICTIONARY
5
C
100
AcDbDictionary
3
ACAD_GROUP
350
D
3
ACAD_MLINESTYLE
350
17
0
DICTIONARY
5
D
100
AcDbDictionary
0
DICTIONARY
5
1A
330
C
100
AcDbDictionary
0
DICTIONARY
5
17
100
AcDbDictionary
0
ENDSEC
0
EOF
