<?xml version="1.0" standalone="no"?>
<svg viewBox="0 0 1024 768" version="1.1" xmlns="http://www.w3.org/2000/svg" xmlns:xlink="http://www.w3.org/1999/xlink" stroke-linecap="round" stroke-linejoin="round" fill-rule="evenodd" xml:space="preserve" style="background-color:rgb(0,0,0);" >
<defs >
<clipPath id="clipId0" >
<path d="M0,768 1024,768 1024,0 0,0 z" />
</clipPath>
</defs>
<rect width="100%" height="100%" fill="rgb(0,0,0)" />
<g clip-path="url(#clipId0)" fill="none" stroke="rgb(255,255,255)" stroke-width="0.1" >
<polyline points="998.591,416.701 999.029,418.336 1000.23,419.533 1001.86,419.971 1010.69,419.971 1010.69,419.971 1012.33,419.533 1013.52,418.336 1013.96,416.701 1013.96,351.299 1013.96,351.299 1013.52,349.664 1012.33,348.467 1010.69,348.029 985.135,348.029 985.135,351.012 979.607,356.539 979.607,356.539 978.654,357.089 977.554,357.089 976.601,356.539 971.073,351.012 971.073,348.029 952.434,348.029 952.434,351.012 946.906,356.539 946.906,356.539 945.953,357.089 944.853,357.089 943.9,356.539 938.372,351.012 938.372,348.029 919.732,348.029 919.732,351.012 914.205,356.539 914.205,356.539 913.252,357.089 912.152,357.089 911.199,356.539 905.671,351.012 905.671,348.029 887.031,348.029 887.031,351.012 881.504,356.539 881.504,356.539 880.551,357.089 879.451,357.089 878.498,356.539 872.97,351.012 872.97,348.029 854.33,348.029 854.33,351.012 848.803,356.539 848.803,356.539 847.85,357.089 846.75,357.089 845.797,356.539 840.269,351.012 840.269,348.029 821.629,348.029 821.629,351.012 816.102,356.539 816.102,356.539 815.149,357.089 814.049,357.089 813.096,356.539 807.568,351.012 807.568,348.029 788.928,348.029 788.928,351.012 783.401,356.539 783.401,356.539 782.448,357.089 781.348,357.089 780.395,356.539 774.867,351.012 774.867,348.029 756.227,348.029 756.227,351.012 750.7,356.539 750.7,356.539 749.747,357.089 748.646,357.089 747.694,356.539 742.166,351.012 742.166,348.029 723.526,348.029 723.526,351.012 717.999,356.539 717.999,356.539 717.046,357.089 715.945,357.089 714.993,356.539 709.465,351.012 709.465,348.029 690.825,348.029 690.825,351.012 685.298,356.539 685.298,356.539 684.345,357.089 683.244,357.089 682.292,356.539 676.764,351.012 676.764,348.029 658.124,348.029 658.124,351.012 652.597,356.539 652.597,356.539 651.644,357.089 650.543,357.089 649.591,356.539 644.063,351.012 644.063,348.029 625.423,348.029 625.423,351.012 619.896,356.539 619.896,356.539 618.943,357.089 617.842,357.089 616.89,356.539 611.362,351.012 611.362,348.029 592.722,348.029 592.722,351.012 587.194,356.539 587.194,356.539 586.242,357.089 585.141,357.089 584.188,356.539 578.661,351.012 578.661,348.029 560.021,348.029 560.021,351.012 554.493,356.539 554.493,356.539 553.541,357.089 552.44,357.089 551.487,356.539 545.96,351.012 545.96,348.029 527.32,348.029 527.32,351.012 521.792,356.539 521.792,356.539 520.84,357.089 519.739,357.089 518.786,356.539 513.259,351.012 513.259,348.029 494.619,348.029 494.619,351.012 489.091,356.539 489.091,356.539 488.139,357.089 487.038,357.089 486.085,356.539 480.558,351.012 480.558,348.029 461.918,348.029 461.918,351.012 456.39,356.539 456.39,356.539 455.438,357.089 454.337,357.089 453.384,356.539 447.857,351.012 447.857,348.029 429.217,348.029 429.217,351.012 423.689,356.539 423.689,356.539 422.736,357.089 421.636,357.089 420.683,356.539 415.156,351.012 415.156,348.029 396.516,348.029 396.516,351.012 390.988,356.539 390.988,356.539 390.035,357.089 388.935,357.089 387.982,356.539 382.455,351.012 382.455,348.029 363.815,348.029 363.815,351.012 358.287,356.539 358.287,356.539 357.334,357.089 356.234,357.089 355.281,356.539 349.754,351.012 349.754,348.029 331.114,348.029 331.114,351.012 325.586,356.539 325.586,356.539 324.633,357.089 323.533,357.089 322.58,356.539 317.053,351.012 317.053,348.029 298.413,348.029 298.413,351.012 292.885,356.539 292.885,356.539 291.932,357.089 290.832,357.089 289.879,356.539 284.352,351.012 284.352,348.029 265.712,348.029 265.712,351.012 260.184,356.539 260.184,356.539 259.231,357.089 258.131,357.089 257.178,356.539 251.65,351.012 251.65,348.029 233.011,348.029 233.011,351.012 227.483,356.539 227.483,356.539 226.53,357.089 225.43,357.089 224.477,356.539 218.949,351.012 218.949,348.029 200.31,348.029 200.31,351.012 194.782,356.539 194.782,356.539 193.829,357.089 192.729,357.089 191.776,356.539 186.248,351.012 186.248,348.029 167.609,348.029 167.609,351.012 162.081,356.539 162.081,356.539 161.128,357.089 160.028,357.089 159.075,356.539 153.547,351.012 153.547,348.029 134.908,348.029 134.908,351.012 129.38,356.539 129.38,356.539 128.427,357.089 127.327,357.089 126.374,356.539 120.846,351.012 120.846,348.029 102.207,348.029 102.207,351.012 96.6791,356.539 96.6791,356.539 95.7262,357.089 94.6259,357.089 93.6731,356.539 88.1453,351.012 88.1453,348.029 69.5058,348.029 69.5058,351.012 63.978,356.539 63.978,356.539 63.0252,357.089 61.9249,357.089 60.972,356.539 55.4443,351.012 55.4443,348.029 36.8047,348.029 36.8047,351.012 31.277,356.539 31.277,356.539 30.3241,357.089 29.2239,357.089 28.271,356.539 22.7433,351.012 22.7433,348.029 10.0392,348.029 10.0392,389.559 22.7433,389.559 22.7433,386.576 28.271,381.049 28.271,381.049 29.2239,380.499 30.3241,380.499 31.277,381.049 36.8047,386.576 36.8047,389.559 55.4443,389.559 55.4443,386.576 60.972,381.049 60.972,381.049 61.9249,380.499 63.0252,380.499 63.978,381.049 69.5058,386.576 69.5058,389.559 88.1453,389.559 88.1453,386.576 93.6731,381.049 93.6731,381.049 94.6259,380.499 95.7262,380.499 96.6791,381.049 102.207,386.576 102.207,389.559 120.846,389.559 120.846,386.576 126.374,381.049 126.374,381.049 127.327,380.499 128.427,380.499 129.38,381.049 134.908,386.576 134.908,389.559 153.547,389.559 153.547,386.576 159.075,381.049 159.075,381.049 160.028,380.499 161.128,380.499 162.081,381.049 167.609,386.576 167.609,389.559 186.248,389.559 186.248,386.576 191.776,381.049 191.776,381.049 192.729,380.499 193.829,380.499 194.782,381.049 200.31,386.576 200.31,389.559 218.949,389.559 218.949,386.576 224.477,381.049 224.477,381.049 225.43,380.499 226.53,380.499 227.483,381.049 233.011,386.576 233.011,389.559 251.65,389.559 251.65,386.576 257.178,381.049 257.178,381.049 258.131,380.499 259.231,380.499 260.184,381.049 265.712,386.576 265.712,389.559 284.352,389.559 284.352,386.576 289.879,381.049 289.879,381.049 290.832,380.499 291.932,380.499 292.885,381.049 298.413,386.576 298.413,389.559 317.053,389.559 317.053,386.576 322.58,381.049 322.58,381.049 323.533,380.499 324.633,380.499 325.586,381.049 331.114,386.576 331.114,389.559 349.754,389.559 349.754,386.576 355.281,381.049 355.281,381.049 356.234,380.499 357.334,380.499 358.287,381.049 363.815,386.576 363.815,389.559 382.455,389.559 382.455,386.576 387.982,381.049 387.982,381.049 388.935,380.499 390.035,380.499 390.988,381.049 396.516,386.576 396.516,389.559 415.156,389.559 415.156,386.576 420.683,381.049 420.683,381.049 421.636,380.499 422.736,380.499 423.689,381.049 429.217,386.576 429.217,389.559 447.857,389.559 447.857,386.576 453.384,381.049 453.384,381.049 454.337,380.499 455.438,380.499 456.39,381.049 461.918,386.576 461.918,389.559 480.558,389.559 480.558,386.576 486.085,381.049 486.085,381.049 487.038,380.499 488.139,380.499 489.091,381.049 494.619,386.576 494.619,389.559 513.259,389.559 513.259,386.576 518.786,381.049 518.786,381.049 519.739,380.499 520.84,380.499 521.792,381.049 527.32,386.576 527.32,389.559 545.96,389.559 545.96,386.576 551.487,381.049 551.487,381.049 552.44,380.499 553.541,380.499 554.493,381.049 560.021,386.576 560.021,389.559 578.661,389.559 578.661,386.576 584.188,381.049 584.188,381.049 585.141,380.499 586.242,380.499 587.194,381.049 592.722,386.576 592.722,389.559 611.362,389.559 611.362,386.576 616.89,381.049 616.89,381.049 617.842,380.499 618.943,380.499 619.896,381.049 625.423,386.576 625.423,389.559 644.063,389.559 644.063,386.576 649.591,381.049 649.591,381.049 650.543,380.499 651.644,380.499 652.597,381.049 658.124,386.576 658.124,389.559 676.764,389.559 676.764,386.576 682.292,381.049 682.292,381.049 683.244,380.499 684.345,380.499 685.298,381.049 690.825,386.576 690.825,389.559 709.465,389.559 709.465,386.576 714.993,381.049 714.993,381.049 715.945,380.499 717.046,380.499 717.999,381.049 723.526,386.576 723.526,389.559 742.166,389.559 742.166,386.576 747.694,381.049 747.694,381.049 748.646,380.499 749.747,380.499 750.7,381.049 756.227,386.576 756.227,389.559 774.867,389.559 774.867,386.576 780.395,381.049 780.395,381.049 781.348,380.499 782.448,380.499 783.401,381.049 788.928,386.576 788.928,389.559 807.568,389.559 807.568,386.576 813.096,381.049 813.096,381.049 814.049,380.499 815.149,380.499 816.102,381.049 821.629,386.576 821.629,389.559 840.269,389.559 840.269,386.576 845.797,381.049 845.797,381.049 846.75,380.499 847.85,380.499 848.803,381.049 854.33,386.576 854.33,389.559 872.97,389.559 872.97,386.576 878.498,381.049 878.498,381.049 879.451,380.499 880.551,380.499 881.504,381.049 887.031,386.576 887.031,389.559 905.671,389.559 905.671,386.576 911.199,381.049 911.199,381.049 912.152,380.499 913.252,380.499 914.205,381.049 919.732,386.576 919.732,389.559 938.372,389.559 938.372,386.576 943.9,381.049 943.9,381.049 944.853,380.499 945.953,380.499 946.906,381.049 952.434,386.576 952.434,389.559 971.073,389.559 971.073,386.576 976.601,381.049 976.601,381.049 977.554,380.499 978.654,380.499 979.607,381.049 985.135,386.576 985.135,389.559 998.591,389.559 998.591,416.701 " />
</g>
</svg>
