0
SECTION
2
HEADER
9
$INSUNITS
70
4
9
$ACADVER
1
AC1014
9
$HANDSEED
5
FFFF
0
ENDSEC
0
SECTION
2
TABLES
0
TABLE
2
VPORT
5
8
100
AcDbSymbolTable
0
ENDTAB
0
TABLE
2
LTYPE
5
5
100
AcDbSymbolTable
0
LTYPE
5
14
100
AcDbSymbolTableRecord
100
AcDbLinetypeTableRecord
2
BYBLOCK
70
0
0
LTYPE
5
15
100
AcDbSymbolTableRecord
100
AcDbLinetypeTableRecord
2
BYLAYER
70
0
0
LTYPE
5
16
100
AcDbSymbolTableRecord
100
AcDbLinetypeTableRecord
2
DASHED
70
0
3
Dashed __ __ __ __ __ __ __ __ __ __ __ __ __ _
72
65
73
2
40
0.75
49
0.5
74
0
49
-0.25
74
0
0
ENDTAB
0
TABLE
2
LAYER
5
2
100
AcDbSymbolTable
70
2
0
LAYER
5
50
100
AcDbSymbolTableRecord
100
AcDbLayerTableRecord
2
0
70
0
62
7
6
CONTINUOUS
0
ENDTAB
0
TABLE
2
STYLE
5
3
100
AcDbSymbolTable
70
1
0
STYLE
5
11
100
AcDbSymbolTableRecord
100
AcDbTextStyleTableRecord
2
STANDARD
70
0
0
ENDTAB
0
TABLE
2
VIEW
5
6
100
AcDbSymbolTable
70
0
0
ENDTAB
0
TABLE
2
UCS
5
7
100
AcDbSymbolTable
70
0
0
ENDTAB
0
TABLE
2
APPID
5
9
100
AcDbSymbolTable
70
2
0
APPID
5
12
100
AcDbSymbolTableRecord
100
AcDbRegAppTableRecord
2
ACAD
70
0
0
ENDTAB
0
TABLE
2
DIMSTYLE
5
A
100
AcDbSymbolTable
70
1
0
ENDTAB
0
TABLE
2
BLOCK_RECORD
5
1
100
AcDbSymbolTable
70
1
0
BLOCK_RECORD
5
1F
100
AcDbSymbolTableRecord
100
AcDbBlockTableRecord
2
*MODEL_SPACE
0
BLOCK_RECORD
5
1B
100
AcDbSymbolTableRecord
100
AcDbBlockTableRecord
2
*PAPER_SPACE
0
ENDTAB
0
ENDSEC
0
SECTION
2
BLOCKS
0
BLOCK
5
20
100
AcDbEntity
100
AcDbBlockBegin
2
*MODEL_SPACE
0
ENDBLK
5
21
100
AcDbEntity
100
AcDbBlockEnd
0
BLOCK
5
1C
100
AcDbEntity
100
AcDbBlockBegin
2
*PAPER_SPACE
0
ENDBLK
5
1D
100
AcDbEntity
100
AcDbBlockEnd
0
ENDSEC
0
SECTION
2
ENTITIES
0
LWPOLYLINE
5
100
100
AcDbEntity
8
0
100
AcDbPolyline
90
364
70
1
43
0.0
10
-300.03491609297316
20
-12.850000000000001
10
-296.15000000000003
20
-12.850000000000001
10
-296.15000000000003
20
-11.937867965643997
10
-294.4596194077713
20
-10.247487373415332
42
-0.41421356237304058
10
-293.54038059222881
20
-10.247487373415256
10
-291.84999999999997
20
-11.937867965644067
10
-291.84999999999997
20
-12.850000000000001
10
-286.15000000000003
20
-12.850000000000001
10
-286.15000000000003
20
-11.937867965644104
10
-284.45961940777124
20
-10.247487373415305
42
-0.41421356237302293
10
-283.54038059222881
20
-10.247487373415236
10
-281.84999999999997
20
-11.937867965644067
10
-281.84999999999997
20
-12.850000000000001
10
-276.15000000000003
20
-12.850000000000001
10
-276.15000000000003
20
-11.937867965644033
10
-274.45961940777119
20
-10.247487373415296
42
-0.41421356237303486
10
-273.54038059222881
20
-10.247487373415256
10
-271.84999999999997
20
-11.937867965644067
10
-271.84999999999997
20
-12.850000000000001
10
-266.15000000000003
20
-12.850000000000001
10
-266.15000000000003
20
-11.937867965644068
10
-264.45961940777124
20
-10.247487373415339
42
-0.41421356237304058
10
-263.54038059222881
20
-10.24748737341527
10
-261.84999999999997
20
-11.937867965644049
10
-261.84999999999997
20
-12.850000000000001
10
-256.15000000000003
20
-12.850000000000001
10
-256.15000000000003
20
-11.937867965644068
10
-254.45961940777124
20
-10.247487373415339
42
-0.41421356237304058
10
-253.54038059222881
20
-10.24748737341527
10
-251.84999999999999
20
-11.937867965644049
10
-251.84999999999999
20
-12.850000000000001
10
-246.15000000000003
20
-12.850000000000001
10
-246.15000000000003
20
-11.937867965644033
10
-244.45961940777121
20
-10.247487373415296
42
-0.41421356237303486
10
-243.54038059222881
20
-10.247487373415256
10
-241.84999999999999
20
-11.937867965644067
10
-241.84999999999999
20
-12.850000000000001
10
-236.15000000000003
20
-12.850000000000001
10
-236.15000000000003
20
-11.937867965644068
10
-234.45961940777124
20
-10.247487373415307
42
-0.41421356237303847
10
-233.54038059222881
20
-10.247487373415272
10
-231.84999999999999
20
-11.937867965644049
10
-231.84999999999999
20
-12.850000000000001
10
-226.15000000000003
20
-12.850000000000001
10
-226.15000000000003
20
-11.937867965644068
10
-224.45961940777121
20
-10.247487373415325
42
-0.41421356237304835
10
-223.54038059222881
20
-10.247487373415289
10
-221.84999999999999
20
-11.937867965644067
10
-221.84999999999999
20
-12.850000000000001
10
-216.15000000000003
20
-12.850000000000001
10
-216.15000000000003
20
-11.937867965644068
10
-214.45961940777124
20
-10.247487373415339
42
-0.41421356237304058
10
-213.54038059222881
20
-10.24748737341527
10
-211.84999999999999
20
-11.937867965644084
10
-211.84999999999999
20
-12.850000000000001
10
-206.15000000000003
20
-12.850000000000001
10
-206.15000000000003
20
-11.937867965644068
10
-204.45961940777121
20
-10.247487373415296
42
-0.41421356237309437
10
-203.54038059222876
20
-10.247487373415291
10
-201.84999999999999
20
-11.937867965644049
10
-201.84999999999999
20
-12.850000000000001
10
-196.15000000000003
20
-12.850000000000001
10
-196.15000000000003
20
-11.937867965644033
10
-194.45961940777121
20
-10.247487373415311
42
-0.41421356237304341
10
-193.54038059222881
20
-10.247487373415273
10
-191.84999999999999
20
-11.937867965644067
10
-191.84999999999999
20
-12.850000000000001
10
-186.15000000000003
20
-12.850000000000001
10
-186.15000000000003
20
-11.937867965644033
10
-184.45961940777121
20
-10.247487373415325
42
-0.41421356237304835
10
-183.54038059222881
20
-10.247487373415289
10
-181.84999999999999
20
-11.937867965644067
10
-181.84999999999999
20
-12.850000000000001
10
-176.15000000000003
20
-12.850000000000001
10
-176.15000000000003
20
-11.937867965644033
10
-174.45961940777124
20
-10.247487373415339
42
-0.41421356237304058
10
-173.54038059222881
20
-10.24748737341527
10
-171.84999999999999
20
-11.937867965644058
10
-171.84999999999999
20
-12.850000000000001
10
-166.15000000000003
20
-12.850000000000001
10
-166.15000000000003
20
-11.937867965644068
10
-164.45961940777124
20
-10.247487373415314
42
-0.41421356237306178
10
-163.54038059222876
20
-10.24748737341528
10
-161.84999999999999
20
-11.937867965644058
10
-161.84999999999999
20
-12.850000000000001
10
-156.15000000000001
20
-12.850000000000001
10
-156.15000000000001
20
-11.937867965644086
10
-154.45961940777127
20
-10.247487373415298
42
-0.41421356237309792
10
-153.54038059222876
20
-10.24748737341528
10
-151.84999999999999
20
-11.93786796564404
10
-151.84999999999999
20
-12.850000000000001
10
-146.15000000000001
20
-12.850000000000001
10
-146.15000000000001
20
-11.937867965644068
10
-144.45961940777127
20
-10.247487373415298
42
-0.41421356237312335
10
-143.54038059222876
20
-10.24748737341528
10
-141.84999999999999
20
-11.937867965644022
10
-141.84999999999999
20
-12.850000000000001
10
-136.15000000000001
20
-12.850000000000001
10
-136.15000000000001
20
-11.937867965644068
10
-134.45961940777127
20
-10.247487373415298
42
-0.41421356237312335
10
-133.54038059222876
20
-10.24748737341528
10
-131.84999999999999
20
-11.937867965644022
10
-131.84999999999999
20
-12.850000000000001
10
-126.15000000000001
20
-12.850000000000001
10
-126.15000000000001
20
-11.937867965644068
10
-124.45961940777127
20
-10.247487373415282
42
-0.41421356237309009
10
-123.54038059222876
20
-10.247487373415263
10
-121.84999999999999
20
-11.937867965644022
10
-121.84999999999999
20
-12.850000000000001
10
-116.15000000000001
20
-12.850000000000001
10
-116.15000000000001
20
-11.937867965644068
10
-114.45961940777124
20
-10.247487373415286
42
-0.41421356237310991
10
-113.54038059222876
20
-10.247487373415282
10
-111.84999999999999
20
-11.937867965644031
10
-111.84999999999999
20
-12.850000000000001
10
-106.15000000000001
20
-12.850000000000001
10
-106.15000000000001
20
-11.937867965644068
10
-104.45961940777127
20
-10.247487373415304
42
-0.41421356237310142
10
-103.54038059222876
20
-10.247487373415282
10
-101.84999999999999
20
-11.937867965644031
10
-101.84999999999999
20
-12.850000000000001
10
-96.150000000000006
20
-12.850000000000001
10
-96.150000000000006
20
-11.937867965644051
10
-94.459619407771271
20
-10.247487373415304
42
-0.41421356237310142
10
-93.540380592228757
20
-10.247487373415282
10
-91.849999999999994
20
-11.937867965644045
10
-91.849999999999994
20
-12.850000000000001
10
-86.150000000000006
20
-12.850000000000001
10
-86.150000000000006
20
-11.937867965644068
10
-84.459619407771257
20
-10.247487373415304
42
-0.41421356237310142
10
-83.540380592228757
20
-10.247487373415286
10
-81.849999999999994
20
-11.937867965644058
10
-81.849999999999994
20
-12.850000000000001
10
-76.149999999999991
20
-12.850000000000001
10
-76.149999999999991
20
-11.937867965644051
10
-74.459619407771271
20
-10.247487373415296
42
-0.41421356237309648
10
-73.540380592228729
20
-10.247487373415279
10
-71.850000000000009
20
-11.937867965644017
10
-71.850000000000009
20
-12.850000000000001
10
-66.149999999999991
20
-12.850000000000001
10
-66.149999999999991
20
-11.937867965644042
10
-64.459619407771271
20
-10.247487373415296
42
-0.41421356237310214
10
-63.540380592228736
20
-10.247487373415288
10
-61.850000000000009
20
-11.937867965644017
10
-61.850000000000009
20
-12.850000000000001
10
-56.149999999999991
20
-12.850000000000001
10
-56.149999999999991
20
-11.937867965644042
10
-54.45961940777125
20
-10.247487373415314
42
-0.41421356237308798
10
-53.540380592228743
20
-10.247487373415288
10
-51.850000000000009
20
-11.93786796564404
10
-51.850000000000009
20
-12.850000000000001
10
-46.149999999999991
20
-12.850000000000001
10
-46.149999999999991
20
-11.937867965644024
10
-44.459619407771278
20
-10.247487373415293
42
-0.41421356237309997
10
-43.540380592228736
20
-10.247487373415286
10
-41.850000000000009
20
-11.937867965644015
10
-41.850000000000009
20
-12.850000000000001
10
-36.150000000000006
20
-12.850000000000001
10
-36.150000000000006
20
-11.937867965644029
10
-34.45961940777125
20
-10.247487373415289
42
-0.41421356237309792
10
-33.540380592228743
20
-10.247487373415289
10
-31.850000000000001
20
-11.937867965644035
10
-31.850000000000001
20
-12.850000000000001
10
-26.150000000000002
20
-12.850000000000001
10
-26.150000000000002
20
-11.937867965644033
10
-24.45961940777125
20
-10.247487373415289
42
-0.41421356237309792
10
-23.540380592228747
20
-10.247487373415289
10
-21.850000000000001
20
-11.937867965644038
10
-21.850000000000001
20
-12.850000000000001
10
-16.149999999999999
20
-12.850000000000001
10
-16.149999999999999
20
-11.937867965644033
10
-14.459619407771253
20
-10.247487373415289
42
-0.4142135623731007
10
-13.540380592228743
20
-10.247487373415291
10
-11.850000000000003
20
-11.937867965644035
10
-11.850000000000003
20
-12.850000000000001
10
-6.1500000000000004
20
-12.850000000000001
10
-6.1500000000000004
20
-11.93786796564404
10
-4.4596194077712576
20
-10.247487373415291
42
-0.41421356237310109
10
-3.5403805922287428
20
-10.247487373415291
10
-1.8499999999999994
20
-11.937867965644035
10
-1.8500000000000001
20
-12.850000000000001
10
1.9650839070268855
20
-12.850000000000001
10
1.9650839070268855
20
-0.14999999999999902
10
-1.8500000000000001
20
-0.14999999999999999
10
-1.8500000000000001
20
-1.0621320343559657
10
-3.5403805922287446
20
-2.7525126265847106
42
-0.41421356237309453
10
-4.4596194077712568
20
-2.7525126265847093
10
-6.1500000000000004
20
-1.0621320343559653
10
-6.1500000000000004
20
-0.14999999999999999
10
-11.850000000000003
20
-0.14999999999999997
10
-11.850000000000003
20
-1.0621320343559679
10
-13.540380592228745
20
-2.7525126265847124
42
-0.41421356237309648
10
-14.459619407771257
20
-2.7525126265847097
10
-16.149999999999999
20
-1.062132034355967
10
-16.149999999999999
20
-0.14999999999999999
10
-21.850000000000001
20
-0.14999999999999997
10
-21.850000000000001
20
-1.0621320343559679
10
-23.540380592228743
20
-2.7525126265847142
42
-0.41421356237309737
10
-24.45961940777126
20
-2.7525126265847093
10
-26.150000000000002
20
-1.062132034355967
10
-26.150000000000002
20
-0.14999999999999902
10
-31.850000000000001
20
-0.14999999999999894
10
-31.850000000000001
20
-1.0621320343559768
10
-33.540380592228743
20
-2.7525126265847173
42
-0.41421356237309559
10
-34.459619407771257
20
-2.7525126265847089
10
-36.150000000000006
20
-1.062132034355967
10
-36.150000000000006
20
-0.14999999999999999
10
-41.850000000000009
20
-0.14999999999999997
10
-41.850000000000009
20
-1.0621320343559679
10
-43.540380592228757
20
-2.7525126265847129
42
-0.41421356237309698
10
-44.459619407771257
20
-2.752512626584704
10
-46.149999999999991
20
-1.062132034355967
10
-46.149999999999991
20
-0.14999999999999999
10
-51.850000000000009
20
-0.14999999999999997
10
-51.850000000000009
20
-1.0621320343559679
10
-53.540380592228743
20
-2.7525126265847089
42
-0.4142135623730972
10
-54.459619407771257
20
-2.7525126265847089
10
-56.149999999999991
20
-1.0621320343559715
10
-56.149999999999991
20
-0.14999999999999999
10
-61.850000000000009
20
-0.14999999999999997
10
-61.850000000000009
20
-1.0621320343559768
10
-63.540380592228743
20
-2.7525126265847089
42
-0.4142135623730952
10
-64.459619407771257
20
-2.7525126265847093
10
-66.149999999999991
20
-1.062132034355967
10
-66.149999999999991
20
-0.14999999999999999
10
-71.850000000000009
20
-0.14999999999999999
10
-71.850000000000009
20
-1.0621320343559946
10
-73.540380592228757
20
-2.7525126265847137
42
-0.41421356237309792
10
-74.459619407771257
20
-2.7525126265847044
10
-76.149999999999991
20
-1.062132034355967
10
-76.149999999999991
20
-0.14999999999999999
10
-81.849999999999994
20
-0.14999999999999997
10
-81.849999999999994
20
-1.0621320343559502
10
-83.540380592228743
20
-2.7525126265847089
42
-0.41421356237311063
10
-84.459619407771257
20
-2.7525126265847089
10
-86.150000000000006
20
-1.0621320343559582
10
-86.150000000000006
20
-0.14999999999999999
10
-91.849999999999994
20
-0.14999999999999997
10
-91.849999999999994
20
-1.0621320343559679
10
-93.540380592228743
20
-2.7525126265847106
42
-0.41421356237310869
10
-94.459619407771257
20
-2.7525126265847097
10
-96.150000000000006
20
-1.0621320343559493
10
-96.150000000000006
20
-0.14999999999999999
10
-101.84999999999999
20
-0.14999999999999997
10
-101.84999999999999
20
-1.0621320343559679
10
-103.54038059222876
20
-2.7525126265847177
42
-0.4142135623730972
10
-104.45961940777126
20
-2.7525126265847
10
-106.15000000000001
20
-1.0621320343559493
10
-106.15000000000001
20
-0.14999999999999999
10
-111.84999999999999
20
-0.14999999999999997
10
-111.84999999999999
20
-1.0621320343559679
10
-113.54038059222874
20
-2.7525126265847333
42
-0.41421356237311446
10
-114.45961940777127
20
-2.7525126265847173
10
-116.15000000000001
20
-1.062132034355967
10
-116.15000000000001
20
-0.14999999999999999
10
-121.84999999999999
20
-0.14999999999999997
10
-121.84999999999999
20
-1.0621320343559679
10
-123.54038059222874
20
-2.7525126265847097
42
-0.41421356237310919
10
-124.45961940777126
20
-2.7525126265847093
10
-126.15000000000001
20
-1.0621320343559582
10
-126.15000000000001
20
-0.14999999999999999
10
-131.84999999999999
20
-0.14999999999999997
10
-131.84999999999999
20
-1.0621320343559679
10
-133.54038059222876
20
-2.7525126265847346
42
-0.41421356237310797
10
-134.45961940777127
20
-2.7525126265846995
10
-136.15000000000001
20
-1.0621320343559582
10
-136.15000000000001
20
-0.14999999999999999
10
-141.84999999999999
20
-0.14999999999999997
10
-141.84999999999999
20
-1.0621320343559502
10
-143.54038059222876
20
-2.7525126265847009
42
-0.41421356237311341
10
-144.45961940777127
20
-2.7525126265847004
10
-146.15000000000001
20
-1.0621320343559404
10
-146.15000000000001
20
-0.14999999999999999
10
-151.84999999999999
20
-0.14999999999999997
10
-151.84999999999999
20
-1.0621320343559502
10
-153.54038059222876
20
-2.7525126265847346
42
-0.41421356237308854
10
-154.45961940777127
20
-2.7525126265847173
10
-156.15000000000001
20
-1.0621320343559759
10
-156.15000000000001
20
-0.14999999999999999
10
-161.84999999999999
20
-0.14999999999999997
10
-161.84999999999999
20
-1.0621320343559679
10
-163.54038059222873
20
-2.7525126265847626
42
-0.41421356237312601
10
-164.4596194077713
20
-2.7525126265846964
10
-166.15000000000003
20
-1.0621320343559939
10
-166.15000000000003
20
-0.14999999999999999
10
-171.84999999999999
20
-0.14999999999999999
10
-171.84999999999999
20
-1.0621320343559324
10
-173.54038059222873
20
-2.7525126265846875
42
-0.41421356237309381
10
-174.45961940777124
20
-2.7525126265846844
10
-176.15000000000003
20
-1.0621320343559408
10
-176.15000000000003
20
-0.14999999999999999
10
-181.84999999999999
20
-0.14999999999999997
10
-181.84999999999999
20
-1.0621320343559324
10
-183.54038059222876
20
-2.7525126265847
42
-0.41421356237307416
10
-184.45961940777124
20
-2.7525126265846644
10
-186.15000000000003
20
-1.0621320343559231
10
-186.15000000000003
20
-0.14999999999999999
10
-191.84999999999999
20
-0.14999999999999997
10
-191.84999999999999
20
-1.0621320343559324
10
-193.54038059222876
20
-2.7525126265847177
42
-0.41421356237306461
10
-194.45961940777124
20
-2.7525126265846822
10
-196.15000000000003
20
-1.0621320343559053
10
-196.15000000000003
20
-0.14999999999999999
10
-201.84999999999999
20
-0.14999999999999999
10
-201.84999999999999
20
-1.0621320343559679
10
-203.54038059222873
20
-2.7525126265846849
42
-0.41421356237309609
10
-204.45961940777124
20
-2.7525126265846831
10
-206.15000000000003
20
-1.0621320343559584
10
-206.15000000000003
20
-0.14999999999999999
10
-211.84999999999999
20
-0.14999999999999997
10
-211.84999999999999
20
-1.0621320343559324
10
-213.54038059222873
20
-2.7525126265846858
42
-0.41421356237309687
10
-214.45961940777124
20
-2.752512626584684
10
-216.15000000000003
20
-1.0621320343559408
10
-216.15000000000003
20
-0.14999999999999999
10
-221.84999999999999
20
-0.14999999999999997
10
-221.84999999999999
20
-1.0621320343559679
10
-223.54038059222876
20
-2.7525126265847355
42
-0.41421356237308865
10
-224.45961940777127
20
-2.7525126265846644
10
-226.15000000000003
20
-1.0621320343559584
10
-226.15000000000003
20
-0.14999999999999999
10
-231.84999999999999
20
-0.14999999999999997
10
-231.84999999999999
20
-1.0621320343558969
10
-233.54038059222873
20
-2.7525126265847
42
-0.41421356237308937
10
-234.45961940777124
20
-2.7525126265847004
10
-236.15000000000003
20
-1.0621320343559408
10
-236.15000000000003
20
-0.14999999999999999
10
-241.84999999999999
20
-0.14999999999999997
10
-241.84999999999999
20
-1.0621320343559679
10
-243.5403805922287
20
-2.7525126265847177
42
-0.41421356237313639
10
-244.4596194077713
20
-2.7525126265846822
10
-246.15000000000003
20
-1.0621320343559939
10
-246.15000000000003
20
-0.14999999999999999
10
-251.84999999999999
20
-0.14999999999999997
10
-251.84999999999999
20
-1.0621320343558969
10
-253.54038059222876
20
-2.7525126265847328
42
-0.41421356237305701
10
-254.45961940777124
20
-2.7525126265846991
10
-256.15000000000003
20
-1.0621320343559586
10
-256.15000000000003
20
-0.14999999999999999
10
-261.84999999999997
20
-0.14999999999999997
10
-261.84999999999997
20
-1.0621320343559324
10
-263.54038059222876
20
-2.7525126265846973
42
-0.41421356237307716
10
-264.45961940777124
20
-2.752512626584664
10
-266.15000000000003
20
-1.0621320343559584
10
-266.15000000000003
20
-0.14999999999999999
10
-271.84999999999997
20
-0.14999999999999997
10
-271.84999999999997
20
-1.0621320343559679
10
-273.54038059222876
20
-2.7525126265847
42
-0.41421356237308937
10
-274.45961940777124
20
-2.7525126265847004
10
-276.15000000000003
20
-1.0621320343559408
10
-276.15000000000003
20
-0.14999999999999999
10
-281.84999999999997
20
-0.14999999999999997
10
-281.84999999999997
20
-1.0621320343559324
10
-283.54038059222876
20
-2.7525126265846822
42
-0.41421356237309986
10
-284.45961940777124
20
-2.7525126265846822
10
-286.15000000000003
20
-1.0621320343559408
10
-286.15000000000003
20
-0.14999999999999999
10
-291.84999999999997
20
-0.14999999999999997
10
-291.84999999999997
20
-1.0621320343559324
10
-293.5403805922287
20
-2.7525126265847213
42
-0.41421356237306994
10
-294.4596194077713
20
-2.7525126265847195
10
-296.15000000000003
20
-1.0621320343560117
10
-296.15000000000003
20
-0.14999999999999999
10
-300.03491609297316
20
-0.14999999999999999
0
ENDSEC
0
SECTION
2
OBJECTS
0
DICTIONARY
5
C
100
AcDbDictionary
3
ACAD_GROUP
350
D
3
ACAD_MLINESTYLE
350
17
0
DICTIONARY
5
D
100
AcDbDictionary
0
DICTIONARY
5
1A
330
C
100
AcDbDictionary
0
DICTIONARY
5
17
100
AcDbDictionary
0
ENDSEC
0
EOF
